<svg width="275" height="72" viewBox="0 0 275 72" fill="none" xmlns="http://www.w3.org/2000/svg">
<g filter="url(#filter0_di_130_461)">
<circle cx="232.793" cy="24.2074" r="16.2074" fill="url(#paint0_linear_130_461)"/>
</g>
<rect x="229.269" y="15.0466" width="7.04668" height="18.3214" rx="1.057" fill="white"/>
<rect x="241.953" y="20.6838" width="7.04668" height="18.3214" rx="1.057" transform="rotate(90 241.953 20.6838)" fill="white"/>
<path d="M3.1655 59.2844V29.1067H16.6716C22.8338 29.1067 25.9149 31.9415 25.9149 37.6113C25.9149 43.7594 21.7013 47.4806 13.274 48.775L12.4721 43.7946C17.5369 42.8801 20.0693 40.8753 20.0693 37.7801C20.0693 35.2759 18.8171 34.0237 16.3129 34.0237H8.75788V59.2844H3.1655ZM29.1015 59.2844V29.1067H34.6939V39.9538C36.4384 38.0685 38.6683 37.1259 41.3836 37.1259C46.6313 37.1259 49.2552 39.8553 49.2552 45.314V59.2844H43.6628V45.314C43.6628 42.866 42.4458 41.642 40.0119 41.642C38.197 41.642 36.4244 42.3666 34.6939 43.8157V59.2844H29.1015ZM53.497 52.3836C53.497 47.9801 56.7047 45.7783 63.1201 45.7783C64.6254 45.7783 66.1308 45.919 67.6362 46.2004V44.5332C67.6362 42.5495 66.2082 41.5576 63.3522 41.5576C60.9324 41.5576 58.2452 41.9093 55.2907 42.6128V38.1811C58.2452 37.4776 60.9324 37.1259 63.3522 37.1259C69.9365 37.1259 73.2286 39.5598 73.2286 44.4277V59.2844H69.9787L67.9949 57.3007C66.0675 58.6232 63.9431 59.2844 61.6217 59.2844C56.2052 59.2844 53.497 56.9842 53.497 52.3836ZM67.6362 49.999C66.2293 49.7176 64.7239 49.5769 63.1201 49.5769C60.4329 49.5769 59.0893 50.4914 59.0893 52.3203C59.0893 54.29 60.2149 55.2748 62.4659 55.2748C64.323 55.2748 66.0464 54.698 67.6362 53.5443V49.999ZM78.5255 59.2844V37.1259H82.8517L83.5481 39.9538C85.4896 38.0685 87.5437 37.1259 89.7103 37.1259V41.642C87.6281 41.642 85.764 42.5073 84.1179 44.2377V59.2844H78.5255ZM92.8758 59.2844V37.1259H97.202L97.8562 40.3336C99.8399 38.1952 102.225 37.1259 105.01 37.1259C107.796 37.1259 109.702 38.1389 110.729 40.1648C112.994 38.1389 115.365 37.1259 117.841 37.1259C122.934 37.1259 125.48 39.9327 125.48 45.5462V59.2844H119.888V45.3351C119.888 42.8731 118.777 41.642 116.554 41.642C114.894 41.642 113.297 42.3877 111.763 43.879V59.2844H106.171V45.3984C106.171 42.8942 105.144 41.642 103.09 41.642C101.458 41.642 99.9173 42.3877 98.4682 43.879V59.2844H92.8758ZM129.722 52.3836C129.722 47.9801 132.93 45.7783 139.345 45.7783C140.851 45.7783 142.356 45.919 143.861 46.2004V44.5332C143.861 42.5495 142.433 41.5576 139.577 41.5576C137.158 41.5576 134.47 41.9093 131.516 42.6128V38.1811C134.47 37.4776 137.158 37.1259 139.577 37.1259C146.162 37.1259 149.454 39.5598 149.454 44.4277V59.2844H146.204L144.22 57.3007C142.293 58.6232 140.168 59.2844 137.847 59.2844C132.43 59.2844 129.722 56.9842 129.722 52.3836ZM143.861 49.999C142.455 49.7176 140.949 49.5769 139.345 49.5769C136.658 49.5769 135.315 50.4914 135.315 52.3203C135.315 54.29 136.44 55.2748 138.691 55.2748C140.548 55.2748 142.272 54.698 143.861 53.5443V49.999ZM155.278 59.2844V29.1067H168.784C174.947 29.1067 178.028 31.9415 178.028 37.6113C178.028 43.7594 173.814 47.4806 165.387 48.775L164.585 43.7946C169.65 42.8801 172.182 40.8753 172.182 37.7801C172.182 35.2759 170.93 34.0237 168.426 34.0237H160.871V59.2844H155.278ZM180.159 52.3836C180.159 47.9801 183.367 45.7783 189.782 45.7783C191.288 45.7783 192.793 45.919 194.298 46.2004V44.5332C194.298 42.5495 192.87 41.5576 190.014 41.5576C187.595 41.5576 184.907 41.9093 181.953 42.6128V38.1811C184.907 37.4776 187.595 37.1259 190.014 37.1259C196.599 37.1259 199.891 39.5598 199.891 44.4277V59.2844H196.641L194.657 57.3007C192.73 58.6232 190.605 59.2844 188.284 59.2844C182.867 59.2844 180.159 56.9842 180.159 52.3836ZM194.298 49.999C192.892 49.7176 191.386 49.5769 189.782 49.5769C187.095 49.5769 185.752 50.4914 185.752 52.3203C185.752 54.29 186.877 55.2748 189.128 55.2748C190.985 55.2748 192.709 54.698 194.298 53.5443V49.999ZM210.78 29.1067V59.2844H205.188V29.1067H210.78Z" fill="url(#paint1_linear_130_461)"/>
<defs>
<filter id="filter0_di_130_461" x="190.924" y="-12.2592" width="83.738" height="83.7381" filterUnits="userSpaceOnUse" color-interpolation-filters="sRGB">
<feFlood flood-opacity="0" result="BackgroundImageFix"/>
<feColorMatrix in="SourceAlpha" type="matrix" values="0 0 0 0 0 0 0 0 0 0 0 0 0 0 0 0 0 0 127 0" result="hardAlpha"/>
<feOffset dy="5.40245"/>
<feGaussianBlur stdDeviation="12.8308"/>
<feComposite in2="hardAlpha" operator="out"/>
<feColorMatrix type="matrix" values="0 0 0 0 0.0862745 0 0 0 0 0.470588 0 0 0 0 0.94902 0 0 0 0.2 0"/>
<feBlend mode="normal" in2="BackgroundImageFix" result="effect1_dropShadow_130_461"/>
<feBlend mode="normal" in="SourceGraphic" in2="effect1_dropShadow_130_461" result="shape"/>
<feColorMatrix in="SourceAlpha" type="matrix" values="0 0 0 0 0 0 0 0 0 0 0 0 0 0 0 0 0 0 127 0" result="hardAlpha"/>
<feOffset dy="5.40245"/>
<feGaussianBlur stdDeviation="2.70123"/>
<feComposite in2="hardAlpha" operator="arithmetic" k2="-1" k3="1"/>
<feColorMatrix type="matrix" values="0 0 0 0 0 0 0 0 0 0 0 0 0 0 0 0 0 0 0.12 0"/>
<feBlend mode="normal" in2="shape" result="effect2_innerShadow_130_461"/>
</filter>
<linearGradient id="paint0_linear_130_461" x1="214.062" y1="-4.71166" x2="287.733" y2="3.21456" gradientUnits="userSpaceOnUse">
<stop stop-color="#45C486"/>
<stop offset="1" stop-color="#3AFAE3"/>
</linearGradient>
<linearGradient id="paint1_linear_130_461" x1="-16.6587" y1="1.46089" x2="383.318" y2="193.317" gradientUnits="userSpaceOnUse">
<stop stop-color="#45C486"/>
<stop offset="1" stop-color="#3AFAE3"/>
</linearGradient>
</defs>
</svg>
